<mxfile host="Electron" modified="2024-05-31T17:21:59.785Z" agent="Mozilla/5.0 (Windows NT 10.0; Win64; x64) AppleWebKit/537.36 (KHTML, like Gecko) draw.io/22.1.16 Chrome/120.0.6099.109 Electron/28.1.0 Safari/537.36" etag="AvQJ_MerqiLuc5AEvRFI" version="22.1.16" type="device">
  <diagram name="Page-1" id="edf60f1a-56cd-e834-aa8a-f176f3a09ee4">
    <mxGraphModel dx="1247" dy="727" grid="1" gridSize="10" guides="1" tooltips="1" connect="1" arrows="1" fold="1" page="1" pageScale="1" pageWidth="1100" pageHeight="850" background="none" math="0" shadow="0">
      <root>
        <mxCell id="0" />
        <mxCell id="1" parent="0" />
        <mxCell id="8bc8nApMp71xvHcONl2K-5" value="" style="edgeStyle=orthogonalEdgeStyle;rounded=0;orthogonalLoop=1;jettySize=auto;html=1;" edge="1" parent="1" source="60e70716793133e9-4" target="8bc8nApMp71xvHcONl2K-4">
          <mxGeometry relative="1" as="geometry" />
        </mxCell>
        <mxCell id="60e70716793133e9-4" value="send post request to add admin user" style="rounded=0;whiteSpace=wrap;html=1;shadow=1;labelBackgroundColor=none;strokeWidth=1;fontFamily=Verdana;fontSize=8;align=center;" parent="1" vertex="1">
          <mxGeometry x="870" y="50" width="120" height="60" as="geometry" />
        </mxCell>
        <mxCell id="8bc8nApMp71xvHcONl2K-1" value="&lt;h1&gt;&lt;b&gt;Add New Admin User&lt;/b&gt;&lt;/h1&gt;" style="text;html=1;align=center;verticalAlign=middle;resizable=0;points=[];autosize=1;strokeColor=none;fillColor=none;" vertex="1" parent="1">
          <mxGeometry x="415" y="20" width="270" height="70" as="geometry" />
        </mxCell>
        <mxCell id="8bc8nApMp71xvHcONl2K-7" value="" style="edgeStyle=orthogonalEdgeStyle;rounded=0;orthogonalLoop=1;jettySize=auto;html=1;" edge="1" parent="1" source="8bc8nApMp71xvHcONl2K-4" target="8bc8nApMp71xvHcONl2K-6">
          <mxGeometry relative="1" as="geometry" />
        </mxCell>
        <mxCell id="8bc8nApMp71xvHcONl2K-11" value="YES" style="edgeLabel;html=1;align=center;verticalAlign=middle;resizable=0;points=[];" vertex="1" connectable="0" parent="8bc8nApMp71xvHcONl2K-7">
          <mxGeometry x="-0.3063" y="-2" relative="1" as="geometry">
            <mxPoint as="offset" />
          </mxGeometry>
        </mxCell>
        <mxCell id="8bc8nApMp71xvHcONl2K-14" value="" style="edgeStyle=orthogonalEdgeStyle;rounded=0;orthogonalLoop=1;jettySize=auto;html=1;" edge="1" parent="1" source="8bc8nApMp71xvHcONl2K-4" target="8bc8nApMp71xvHcONl2K-13">
          <mxGeometry relative="1" as="geometry" />
        </mxCell>
        <mxCell id="8bc8nApMp71xvHcONl2K-16" value="NO" style="edgeLabel;html=1;align=center;verticalAlign=middle;resizable=0;points=[];" vertex="1" connectable="0" parent="8bc8nApMp71xvHcONl2K-14">
          <mxGeometry x="-0.166" y="-1" relative="1" as="geometry">
            <mxPoint as="offset" />
          </mxGeometry>
        </mxCell>
        <mxCell id="8bc8nApMp71xvHcONl2K-4" value="data is valid ?" style="rhombus;whiteSpace=wrap;html=1;fontSize=8;fontFamily=Verdana;rounded=0;shadow=1;labelBackgroundColor=none;strokeWidth=1;" vertex="1" parent="1">
          <mxGeometry x="750" y="190" width="80" height="80" as="geometry" />
        </mxCell>
        <mxCell id="8bc8nApMp71xvHcONl2K-10" value="" style="edgeStyle=orthogonalEdgeStyle;rounded=0;orthogonalLoop=1;jettySize=auto;html=1;" edge="1" parent="1" source="8bc8nApMp71xvHcONl2K-6" target="8bc8nApMp71xvHcONl2K-9">
          <mxGeometry relative="1" as="geometry" />
        </mxCell>
        <mxCell id="8bc8nApMp71xvHcONl2K-6" value="1- add admin data in admin_users table&lt;br&gt;2- send welcome mail to this user&lt;br&gt;3- add log [add new admin user]" style="whiteSpace=wrap;html=1;fontSize=8;fontFamily=Verdana;rounded=0;shadow=1;labelBackgroundColor=none;strokeWidth=1;" vertex="1" parent="1">
          <mxGeometry x="695" y="360" width="190" height="60" as="geometry" />
        </mxCell>
        <mxCell id="8bc8nApMp71xvHcONl2K-9" value="return success" style="whiteSpace=wrap;html=1;fontSize=8;fontFamily=Verdana;rounded=0;shadow=1;labelBackgroundColor=none;strokeWidth=1;" vertex="1" parent="1">
          <mxGeometry x="900" y="530" width="120" height="60" as="geometry" />
        </mxCell>
        <mxCell id="8bc8nApMp71xvHcONl2K-49" style="edgeStyle=orthogonalEdgeStyle;rounded=0;orthogonalLoop=1;jettySize=auto;html=1;entryX=0.5;entryY=1;entryDx=0;entryDy=0;" edge="1" parent="1" source="8bc8nApMp71xvHcONl2K-13" target="60e70716793133e9-4">
          <mxGeometry relative="1" as="geometry" />
        </mxCell>
        <mxCell id="8bc8nApMp71xvHcONl2K-13" value="return error validation response with error messages&amp;nbsp;&lt;br&gt;&quot;input_name&quot;=&amp;gt;&quot;error_message&quot;" style="whiteSpace=wrap;html=1;fontSize=8;fontFamily=Verdana;rounded=0;shadow=1;labelBackgroundColor=none;strokeWidth=1;" vertex="1" parent="1">
          <mxGeometry x="890" y="165" width="170" height="60" as="geometry" />
        </mxCell>
        <mxCell id="8bc8nApMp71xvHcONl2K-47" value="" style="edgeStyle=orthogonalEdgeStyle;rounded=0;orthogonalLoop=1;jettySize=auto;html=1;" edge="1" parent="1" source="8bc8nApMp71xvHcONl2K-22" target="8bc8nApMp71xvHcONl2K-4">
          <mxGeometry relative="1" as="geometry" />
        </mxCell>
        <mxCell id="8bc8nApMp71xvHcONl2K-22" value="admin user data" style="shape=table;startSize=30;container=1;collapsible=0;childLayout=tableLayout;strokeColor=default;fontSize=16;" vertex="1" parent="1">
          <mxGeometry x="10" y="100" width="607" height="270" as="geometry" />
        </mxCell>
        <mxCell id="8bc8nApMp71xvHcONl2K-23" value="" style="shape=tableRow;horizontal=0;startSize=0;swimlaneHead=0;swimlaneBody=0;strokeColor=inherit;top=0;left=0;bottom=0;right=0;collapsible=0;dropTarget=0;fillColor=none;points=[[0,0.5],[1,0.5]];portConstraint=eastwest;fontSize=16;" vertex="1" parent="8bc8nApMp71xvHcONl2K-22">
          <mxGeometry y="30" width="607" height="40" as="geometry" />
        </mxCell>
        <mxCell id="8bc8nApMp71xvHcONl2K-24" value="column name" style="shape=partialRectangle;html=1;whiteSpace=wrap;connectable=0;strokeColor=inherit;overflow=hidden;fillColor=none;top=0;left=0;bottom=0;right=0;pointerEvents=1;fontSize=10;labelBackgroundColor=default;fontStyle=1;horizontal=1;verticalAlign=middle;" vertex="1" parent="8bc8nApMp71xvHcONl2K-23">
          <mxGeometry width="122" height="40" as="geometry">
            <mxRectangle width="122" height="40" as="alternateBounds" />
          </mxGeometry>
        </mxCell>
        <mxCell id="8bc8nApMp71xvHcONl2K-25" value="type" style="shape=partialRectangle;html=1;whiteSpace=wrap;connectable=0;strokeColor=inherit;overflow=hidden;fillColor=none;top=0;left=0;bottom=0;right=0;pointerEvents=1;fontSize=10;labelBackgroundColor=default;fontStyle=1;horizontal=1;verticalAlign=middle;" vertex="1" parent="8bc8nApMp71xvHcONl2K-23">
          <mxGeometry x="122" width="111" height="40" as="geometry">
            <mxRectangle width="111" height="40" as="alternateBounds" />
          </mxGeometry>
        </mxCell>
        <mxCell id="8bc8nApMp71xvHcONl2K-26" value="validation rules" style="shape=partialRectangle;html=1;whiteSpace=wrap;connectable=0;strokeColor=inherit;overflow=hidden;fillColor=none;top=0;left=0;bottom=0;right=0;pointerEvents=1;fontSize=10;labelBackgroundColor=default;fontStyle=1;horizontal=1;verticalAlign=middle;" vertex="1" parent="8bc8nApMp71xvHcONl2K-23">
          <mxGeometry x="233" width="189" height="40" as="geometry">
            <mxRectangle width="189" height="40" as="alternateBounds" />
          </mxGeometry>
        </mxCell>
        <mxCell id="8bc8nApMp71xvHcONl2K-97" value="note" style="shape=partialRectangle;html=1;whiteSpace=wrap;connectable=0;strokeColor=inherit;overflow=hidden;fillColor=none;top=0;left=0;bottom=0;right=0;pointerEvents=1;fontSize=10;labelBackgroundColor=default;fontStyle=1;horizontal=1;verticalAlign=middle;" vertex="1" parent="8bc8nApMp71xvHcONl2K-23">
          <mxGeometry x="422" width="185" height="40" as="geometry">
            <mxRectangle width="185" height="40" as="alternateBounds" />
          </mxGeometry>
        </mxCell>
        <mxCell id="8bc8nApMp71xvHcONl2K-27" value="" style="shape=tableRow;horizontal=0;startSize=0;swimlaneHead=0;swimlaneBody=0;strokeColor=inherit;top=0;left=0;bottom=0;right=0;collapsible=0;dropTarget=0;fillColor=none;points=[[0,0.5],[1,0.5]];portConstraint=eastwest;fontSize=16;" vertex="1" parent="8bc8nApMp71xvHcONl2K-22">
          <mxGeometry y="70" width="607" height="40" as="geometry" />
        </mxCell>
        <mxCell id="8bc8nApMp71xvHcONl2K-28" value="code" style="shape=partialRectangle;html=1;whiteSpace=wrap;connectable=0;strokeColor=inherit;overflow=hidden;fillColor=none;top=0;left=0;bottom=0;right=0;pointerEvents=1;fontSize=10;" vertex="1" parent="8bc8nApMp71xvHcONl2K-27">
          <mxGeometry width="122" height="40" as="geometry">
            <mxRectangle width="122" height="40" as="alternateBounds" />
          </mxGeometry>
        </mxCell>
        <mxCell id="8bc8nApMp71xvHcONl2K-29" value="string" style="shape=partialRectangle;html=1;whiteSpace=wrap;connectable=0;strokeColor=inherit;overflow=hidden;fillColor=none;top=0;left=0;bottom=0;right=0;pointerEvents=1;fontSize=10;" vertex="1" parent="8bc8nApMp71xvHcONl2K-27">
          <mxGeometry x="122" width="111" height="40" as="geometry">
            <mxRectangle width="111" height="40" as="alternateBounds" />
          </mxGeometry>
        </mxCell>
        <mxCell id="8bc8nApMp71xvHcONl2K-30" value="nullable|unique|min:5|max:20&lt;span style=&quot;white-space: pre; font-size: 10px;&quot;&gt;&#x9;&lt;/span&gt;" style="shape=partialRectangle;html=1;whiteSpace=wrap;connectable=0;strokeColor=inherit;overflow=hidden;fillColor=none;top=0;left=0;bottom=0;right=0;pointerEvents=1;fontSize=10;" vertex="1" parent="8bc8nApMp71xvHcONl2K-27">
          <mxGeometry x="233" width="189" height="40" as="geometry">
            <mxRectangle width="189" height="40" as="alternateBounds" />
          </mxGeometry>
        </mxCell>
        <mxCell id="8bc8nApMp71xvHcONl2K-98" value="if value&amp;nbsp; = null, code = 5 characters random unique&amp;nbsp;" style="shape=partialRectangle;html=1;whiteSpace=wrap;connectable=0;strokeColor=inherit;overflow=hidden;fillColor=none;top=0;left=0;bottom=0;right=0;pointerEvents=1;fontSize=10;" vertex="1" parent="8bc8nApMp71xvHcONl2K-27">
          <mxGeometry x="422" width="185" height="40" as="geometry">
            <mxRectangle width="185" height="40" as="alternateBounds" />
          </mxGeometry>
        </mxCell>
        <mxCell id="8bc8nApMp71xvHcONl2K-31" value="" style="shape=tableRow;horizontal=0;startSize=0;swimlaneHead=0;swimlaneBody=0;strokeColor=inherit;top=0;left=0;bottom=0;right=0;collapsible=0;dropTarget=0;fillColor=none;points=[[0,0.5],[1,0.5]];portConstraint=eastwest;fontSize=16;" vertex="1" parent="8bc8nApMp71xvHcONl2K-22">
          <mxGeometry y="110" width="607" height="40" as="geometry" />
        </mxCell>
        <mxCell id="8bc8nApMp71xvHcONl2K-32" value="name" style="shape=partialRectangle;html=1;whiteSpace=wrap;connectable=0;strokeColor=inherit;overflow=hidden;fillColor=none;top=0;left=0;bottom=0;right=0;pointerEvents=1;fontSize=10;" vertex="1" parent="8bc8nApMp71xvHcONl2K-31">
          <mxGeometry width="122" height="40" as="geometry">
            <mxRectangle width="122" height="40" as="alternateBounds" />
          </mxGeometry>
        </mxCell>
        <mxCell id="8bc8nApMp71xvHcONl2K-33" value="string" style="shape=partialRectangle;html=1;whiteSpace=wrap;connectable=0;strokeColor=inherit;overflow=hidden;fillColor=none;top=0;left=0;bottom=0;right=0;pointerEvents=1;fontSize=10;" vertex="1" parent="8bc8nApMp71xvHcONl2K-31">
          <mxGeometry x="122" width="111" height="40" as="geometry">
            <mxRectangle width="111" height="40" as="alternateBounds" />
          </mxGeometry>
        </mxCell>
        <mxCell id="8bc8nApMp71xvHcONl2K-34" value="min:3|max:40" style="shape=partialRectangle;html=1;whiteSpace=wrap;connectable=0;strokeColor=inherit;overflow=hidden;fillColor=none;top=0;left=0;bottom=0;right=0;pointerEvents=1;fontSize=10;" vertex="1" parent="8bc8nApMp71xvHcONl2K-31">
          <mxGeometry x="233" width="189" height="40" as="geometry">
            <mxRectangle width="189" height="40" as="alternateBounds" />
          </mxGeometry>
        </mxCell>
        <mxCell id="8bc8nApMp71xvHcONl2K-99" style="shape=partialRectangle;html=1;whiteSpace=wrap;connectable=0;strokeColor=inherit;overflow=hidden;fillColor=none;top=0;left=0;bottom=0;right=0;pointerEvents=1;fontSize=10;" vertex="1" parent="8bc8nApMp71xvHcONl2K-31">
          <mxGeometry x="422" width="185" height="40" as="geometry">
            <mxRectangle width="185" height="40" as="alternateBounds" />
          </mxGeometry>
        </mxCell>
        <mxCell id="8bc8nApMp71xvHcONl2K-39" value="" style="shape=tableRow;horizontal=0;startSize=0;swimlaneHead=0;swimlaneBody=0;strokeColor=inherit;top=0;left=0;bottom=0;right=0;collapsible=0;dropTarget=0;fillColor=none;points=[[0,0.5],[1,0.5]];portConstraint=eastwest;fontSize=16;" vertex="1" parent="8bc8nApMp71xvHcONl2K-22">
          <mxGeometry y="150" width="607" height="40" as="geometry" />
        </mxCell>
        <mxCell id="8bc8nApMp71xvHcONl2K-40" value="username" style="shape=partialRectangle;html=1;whiteSpace=wrap;connectable=0;strokeColor=inherit;overflow=hidden;fillColor=none;top=0;left=0;bottom=0;right=0;pointerEvents=1;fontSize=10;" vertex="1" parent="8bc8nApMp71xvHcONl2K-39">
          <mxGeometry width="122" height="40" as="geometry">
            <mxRectangle width="122" height="40" as="alternateBounds" />
          </mxGeometry>
        </mxCell>
        <mxCell id="8bc8nApMp71xvHcONl2K-41" value="string" style="shape=partialRectangle;html=1;whiteSpace=wrap;connectable=0;strokeColor=inherit;overflow=hidden;fillColor=none;top=0;left=0;bottom=0;right=0;pointerEvents=1;fontSize=10;" vertex="1" parent="8bc8nApMp71xvHcONl2K-39">
          <mxGeometry x="122" width="111" height="40" as="geometry">
            <mxRectangle width="111" height="40" as="alternateBounds" />
          </mxGeometry>
        </mxCell>
        <mxCell id="8bc8nApMp71xvHcONl2K-42" value="unique" style="shape=partialRectangle;html=1;whiteSpace=wrap;connectable=0;strokeColor=inherit;overflow=hidden;fillColor=none;top=0;left=0;bottom=0;right=0;pointerEvents=1;fontSize=10;" vertex="1" parent="8bc8nApMp71xvHcONl2K-39">
          <mxGeometry x="233" width="189" height="40" as="geometry">
            <mxRectangle width="189" height="40" as="alternateBounds" />
          </mxGeometry>
        </mxCell>
        <mxCell id="8bc8nApMp71xvHcONl2K-100" style="shape=partialRectangle;html=1;whiteSpace=wrap;connectable=0;strokeColor=inherit;overflow=hidden;fillColor=none;top=0;left=0;bottom=0;right=0;pointerEvents=1;fontSize=10;" vertex="1" parent="8bc8nApMp71xvHcONl2K-39">
          <mxGeometry x="422" width="185" height="40" as="geometry">
            <mxRectangle width="185" height="40" as="alternateBounds" />
          </mxGeometry>
        </mxCell>
        <mxCell id="8bc8nApMp71xvHcONl2K-43" value="" style="shape=tableRow;horizontal=0;startSize=0;swimlaneHead=0;swimlaneBody=0;strokeColor=inherit;top=0;left=0;bottom=0;right=0;collapsible=0;dropTarget=0;fillColor=none;points=[[0,0.5],[1,0.5]];portConstraint=eastwest;fontSize=16;" vertex="1" parent="8bc8nApMp71xvHcONl2K-22">
          <mxGeometry y="190" width="607" height="40" as="geometry" />
        </mxCell>
        <mxCell id="8bc8nApMp71xvHcONl2K-44" value="password" style="shape=partialRectangle;html=1;whiteSpace=wrap;connectable=0;strokeColor=inherit;overflow=hidden;fillColor=none;top=0;left=0;bottom=0;right=0;pointerEvents=1;fontSize=10;" vertex="1" parent="8bc8nApMp71xvHcONl2K-43">
          <mxGeometry width="122" height="40" as="geometry">
            <mxRectangle width="122" height="40" as="alternateBounds" />
          </mxGeometry>
        </mxCell>
        <mxCell id="8bc8nApMp71xvHcONl2K-45" value="string" style="shape=partialRectangle;html=1;whiteSpace=wrap;connectable=0;strokeColor=inherit;overflow=hidden;fillColor=none;top=0;left=0;bottom=0;right=0;pointerEvents=1;fontSize=10;" vertex="1" parent="8bc8nApMp71xvHcONl2K-43">
          <mxGeometry x="122" width="111" height="40" as="geometry">
            <mxRectangle width="111" height="40" as="alternateBounds" />
          </mxGeometry>
        </mxCell>
        <mxCell id="8bc8nApMp71xvHcONl2K-46" value="nullable" style="shape=partialRectangle;html=1;whiteSpace=wrap;connectable=0;strokeColor=inherit;overflow=hidden;fillColor=none;top=0;left=0;bottom=0;right=0;pointerEvents=1;fontSize=10;" vertex="1" parent="8bc8nApMp71xvHcONl2K-43">
          <mxGeometry x="233" width="189" height="40" as="geometry">
            <mxRectangle width="189" height="40" as="alternateBounds" />
          </mxGeometry>
        </mxCell>
        <mxCell id="8bc8nApMp71xvHcONl2K-101" value="if value&amp;nbsp; = null, password = 8 characters random unique&amp;nbsp;" style="shape=partialRectangle;html=1;whiteSpace=wrap;connectable=0;strokeColor=inherit;overflow=hidden;fillColor=none;top=0;left=0;bottom=0;right=0;pointerEvents=1;fontSize=10;" vertex="1" parent="8bc8nApMp71xvHcONl2K-43">
          <mxGeometry x="422" width="185" height="40" as="geometry">
            <mxRectangle width="185" height="40" as="alternateBounds" />
          </mxGeometry>
        </mxCell>
        <mxCell id="8bc8nApMp71xvHcONl2K-102" value="" style="shape=tableRow;horizontal=0;startSize=0;swimlaneHead=0;swimlaneBody=0;strokeColor=inherit;top=0;left=0;bottom=0;right=0;collapsible=0;dropTarget=0;fillColor=none;points=[[0,0.5],[1,0.5]];portConstraint=eastwest;fontSize=16;" vertex="1" parent="8bc8nApMp71xvHcONl2K-22">
          <mxGeometry y="230" width="607" height="40" as="geometry" />
        </mxCell>
        <mxCell id="8bc8nApMp71xvHcONl2K-103" value="rules" style="shape=partialRectangle;html=1;whiteSpace=wrap;connectable=0;strokeColor=inherit;overflow=hidden;fillColor=none;top=0;left=0;bottom=0;right=0;pointerEvents=1;fontSize=10;" vertex="1" parent="8bc8nApMp71xvHcONl2K-102">
          <mxGeometry width="122" height="40" as="geometry">
            <mxRectangle width="122" height="40" as="alternateBounds" />
          </mxGeometry>
        </mxCell>
        <mxCell id="8bc8nApMp71xvHcONl2K-104" value="array" style="shape=partialRectangle;html=1;whiteSpace=wrap;connectable=0;strokeColor=inherit;overflow=hidden;fillColor=none;top=0;left=0;bottom=0;right=0;pointerEvents=1;fontSize=10;" vertex="1" parent="8bc8nApMp71xvHcONl2K-102">
          <mxGeometry x="122" width="111" height="40" as="geometry">
            <mxRectangle width="111" height="40" as="alternateBounds" />
          </mxGeometry>
        </mxCell>
        <mxCell id="8bc8nApMp71xvHcONl2K-105" value="required" style="shape=partialRectangle;html=1;whiteSpace=wrap;connectable=0;strokeColor=inherit;overflow=hidden;fillColor=none;top=0;left=0;bottom=0;right=0;pointerEvents=1;fontSize=10;" vertex="1" parent="8bc8nApMp71xvHcONl2K-102">
          <mxGeometry x="233" width="189" height="40" as="geometry">
            <mxRectangle width="189" height="40" as="alternateBounds" />
          </mxGeometry>
        </mxCell>
        <mxCell id="8bc8nApMp71xvHcONl2K-106" value="" style="shape=partialRectangle;html=1;whiteSpace=wrap;connectable=0;strokeColor=inherit;overflow=hidden;fillColor=none;top=0;left=0;bottom=0;right=0;pointerEvents=1;fontSize=10;" vertex="1" parent="8bc8nApMp71xvHcONl2K-102">
          <mxGeometry x="422" width="185" height="40" as="geometry">
            <mxRectangle width="185" height="40" as="alternateBounds" />
          </mxGeometry>
        </mxCell>
      </root>
    </mxGraphModel>
  </diagram>
</mxfile>
